<svg width="129" height="129" viewBox="0 0 129 129" fill="none" xmlns="http://www.w3.org/2000/svg">
<path fill-rule="evenodd" clip-rule="evenodd" d="M52.4062 24.1875C36.8215 24.1875 24.1875 36.8215 24.1875 52.4062C24.1875 67.991 36.8215 80.625 52.4062 80.625C67.991 80.625 80.625 67.991 80.625 52.4062C80.625 36.8215 67.991 24.1875 52.4062 24.1875ZM16.125 52.4062C16.125 32.3687 32.3687 16.125 52.4062 16.125C72.4438 16.125 88.6875 32.3687 88.6875 52.4062C88.6875 72.4438 72.4438 88.6875 52.4062 88.6875C32.3687 88.6875 16.125 72.4438 16.125 52.4062Z" fill="#56B5C1"/>
<path fill-rule="evenodd" clip-rule="evenodd" d="M52.4062 32.25C54.6326 32.25 56.4375 34.0549 56.4375 36.2812V50.7365L67.3505 61.6495C68.9248 63.2238 68.9248 65.7762 67.3505 67.3505C65.7762 68.9248 63.2238 68.9248 61.6495 67.3505L49.5557 55.2568C48.7997 54.5008 48.375 53.4754 48.375 52.4062V36.2812C48.375 34.0549 50.1799 32.25 52.4062 32.25Z" fill="#E9EBF7"/>
</svg>
