<svg width="79" height="79" viewBox="0 0 79 79" fill="none" xmlns="http://www.w3.org/2000/svg">
<path fill-rule="evenodd" clip-rule="evenodd" d="M16.0469 32.0938C15.3651 32.0938 14.8125 32.6464 14.8125 33.3281C14.8125 34.0099 15.3651 34.5625 16.0469 34.5625C16.7286 34.5625 17.2812 34.0099 17.2812 33.3281C17.2812 32.6464 16.7286 32.0938 16.0469 32.0938ZM9.875 33.3281C9.875 29.9195 12.6382 27.1562 16.0469 27.1562C19.4555 27.1562 22.2188 29.9195 22.2188 33.3281C22.2188 36.7368 19.4555 39.5 16.0469 39.5C12.6382 39.5 9.875 36.7368 9.875 33.3281Z" fill="#E9EBF7"/>
<path fill-rule="evenodd" clip-rule="evenodd" d="M16.0469 41.9688C14.9389 41.9688 14.0847 42.2394 13.4011 42.6304C12.2502 43.2887 11.3137 44.7997 10.6562 46.6073C10.3496 47.4501 10.1451 48.2422 10.0179 48.8249C9.95479 49.114 9.91189 49.3461 9.88556 49.5001C9.87242 49.577 9.86347 49.634 9.85825 49.6686L9.85317 49.7031C9.67223 51.0539 8.43078 52.0024 7.07971 51.8221C5.72824 51.6417 4.77887 50.3999 4.95924 49.0484L7.40629 49.375C4.95924 49.0484 4.95915 49.0491 4.95924 49.0484L4.96009 49.0421L4.96128 49.0334L4.96476 49.0085L4.97622 48.9306C4.98593 48.8663 4.99989 48.7779 5.01866 48.6681C5.05615 48.4488 5.11309 48.1425 5.19402 47.7718C5.35491 47.0348 5.61541 46.021 6.01616 44.9193C6.77336 42.8378 8.22136 39.9051 10.9495 38.3446C12.3764 37.5284 14.0751 37.0312 16.0469 37.0312C21.0203 37.0312 23.8348 40.5107 25.2663 43.3152C25.9988 44.7502 26.4583 46.1596 26.735 47.1944C26.8746 47.7166 26.9709 48.1558 27.0334 48.4714C27.0647 48.6294 27.0876 48.7573 27.1034 48.85C27.1113 48.8964 27.1174 48.934 27.1218 48.9624L27.1273 48.9978L27.1292 49.0101L27.1299 49.0149C27.13 49.0158 27.1304 49.0187 24.7618 49.3642L27.1305 49.0187C27.3272 50.3679 26.393 51.6212 25.0438 51.8179C23.6967 52.0144 22.4452 51.0833 22.2455 49.7374L22.2445 49.731L22.2358 49.6782C22.227 49.6262 22.212 49.5419 22.1898 49.43C22.1454 49.2055 22.0729 48.8732 21.965 48.4697C21.7467 47.6529 21.3962 46.5936 20.8685 45.5598C19.7798 43.4268 18.2741 41.9688 16.0469 41.9688ZM22.2451 49.7345C22.2451 49.7342 22.2452 49.7349 22.2451 49.7345V49.7345ZM22.2451 49.7345C22.245 49.7338 22.2446 49.7317 22.2445 49.731L24.6875 49.375C22.2446 49.7313 22.245 49.7338 22.2451 49.7345Z" fill="#E9EBF7"/>
<path fill-rule="evenodd" clip-rule="evenodd" d="M60.4844 9.875C59.8026 9.875 59.25 10.4276 59.25 11.1094C59.25 11.7911 59.8026 12.3438 60.4844 12.3438C61.1661 12.3438 61.7188 11.7911 61.7188 11.1094C61.7188 10.4276 61.1661 9.875 60.4844 9.875ZM54.3125 11.1094C54.3125 7.70074 57.0757 4.9375 60.4844 4.9375C63.893 4.9375 66.6562 7.70074 66.6562 11.1094C66.6562 14.518 63.893 17.2812 60.4844 17.2812C57.0757 17.2812 54.3125 14.518 54.3125 11.1094Z" fill="#E9EBF7"/>
<path fill-rule="evenodd" clip-rule="evenodd" d="M60.4844 19.75C59.3764 19.75 58.5222 20.0206 57.8386 20.4117C56.6877 21.07 55.7512 22.5809 55.0937 24.3885C54.7871 25.2314 54.5826 26.0235 54.4554 26.6061C54.3923 26.8953 54.3494 27.1273 54.3231 27.2814C54.3099 27.3582 54.301 27.4153 54.2957 27.4498L54.2907 27.4843C54.1097 28.8352 52.8683 29.7836 51.5172 29.6033C50.1657 29.4229 49.2164 28.1811 49.3967 26.8297L51.8438 27.1562C49.3967 26.8297 49.3966 26.8303 49.3967 26.8297L49.3976 26.8234L49.3988 26.8146L49.4023 26.7898L49.4137 26.7118C49.4234 26.6476 49.4374 26.5592 49.4562 26.4494C49.4937 26.2301 49.5506 25.9238 49.6315 25.5531C49.7924 24.816 50.0529 23.8022 50.4537 22.7006C51.2109 20.6191 52.6589 17.6863 55.387 16.1258C56.8139 15.3097 58.5126 14.8125 60.4844 14.8125C65.4578 14.8125 68.2723 18.2919 69.7038 21.0964C70.4363 22.5314 70.8958 23.9409 71.1725 24.9756C71.3121 25.4979 71.4084 25.9371 71.4709 26.2526C71.5022 26.4107 71.5251 26.5386 71.5409 26.6313C71.5488 26.6776 71.5549 26.7153 71.5593 26.7436L71.5648 26.779L71.5667 26.7913L71.5674 26.7961C71.5675 26.797 71.5679 26.8 69.1993 27.1454L71.5679 26.8C71.7647 28.1492 70.8305 29.4024 69.4813 29.5992C68.1342 29.7956 66.8827 28.8645 66.683 27.5187L66.682 27.5122L66.6733 27.4594C66.6645 27.4075 66.6495 27.3232 66.6273 27.2112C66.5829 26.9868 66.5104 26.6544 66.4025 26.2509C66.1841 25.4341 65.8337 24.3748 65.306 23.3411C64.2173 21.2081 62.7116 19.75 60.4844 19.75ZM66.6826 27.5158C66.6826 27.5154 66.6827 27.5162 66.6826 27.5158V27.5158ZM66.6826 27.5158C66.6825 27.5151 66.6821 27.513 66.682 27.5122L69.125 27.1562C66.6821 27.5125 66.6825 27.515 66.6826 27.5158Z" fill="#E9EBF7"/>
<path fill-rule="evenodd" clip-rule="evenodd" d="M60.4844 32.0938C59.8026 32.0938 59.25 32.6464 59.25 33.3281C59.25 34.0099 59.8026 34.5625 60.4844 34.5625C61.1661 34.5625 61.7188 34.0099 61.7188 33.3281C61.7188 32.6464 61.1661 32.0938 60.4844 32.0938ZM54.3125 33.3281C54.3125 29.9195 57.0757 27.1562 60.4844 27.1562C63.893 27.1562 66.6562 29.9195 66.6562 33.3281C66.6562 36.7368 63.893 39.5 60.4844 39.5C57.0757 39.5 54.3125 36.7368 54.3125 33.3281Z" fill="#E9EBF7"/>
<path fill-rule="evenodd" clip-rule="evenodd" d="M60.4844 41.9688C59.3764 41.9688 58.5222 42.2394 57.8386 42.6304C56.6877 43.2887 55.7512 44.7997 55.0937 46.6073C54.7871 47.4501 54.5826 48.2422 54.4554 48.8249C54.3923 49.114 54.3494 49.3461 54.3231 49.5001C54.3099 49.577 54.301 49.634 54.2957 49.6686L54.2907 49.7031C54.1097 51.0539 52.8683 52.0024 51.5172 51.8221C50.1657 51.6417 49.2164 50.3999 49.3967 49.0484L51.8438 49.375C49.3967 49.0484 49.3966 49.0491 49.3967 49.0484L49.3976 49.0421L49.3988 49.0334L49.4023 49.0085L49.4137 48.9306C49.4234 48.8663 49.4374 48.7779 49.4562 48.6681C49.4937 48.4488 49.5506 48.1425 49.6315 47.7718C49.7924 47.0348 50.0529 46.021 50.4537 44.9193C51.2109 42.8378 52.6589 39.9051 55.387 38.3446C56.8139 37.5284 58.5126 37.0312 60.4844 37.0312C65.4578 37.0312 68.2723 40.5107 69.7038 43.3152C70.4363 44.7502 70.8958 46.1596 71.1725 47.1944C71.3121 47.7166 71.4084 48.1558 71.4709 48.4714C71.5022 48.6294 71.5251 48.7573 71.5409 48.85C71.5488 48.8964 71.5549 48.934 71.5593 48.9624L71.5648 48.9978L71.5667 49.0101L71.5674 49.0149C71.5675 49.0158 71.5679 49.0187 69.1993 49.3642L71.5679 49.0187C71.7647 50.3679 70.8305 51.6212 69.4813 51.8179C68.1342 52.0144 66.8827 51.0833 66.683 49.7374L66.682 49.731L66.6733 49.6782C66.6645 49.6262 66.6495 49.5419 66.6273 49.43C66.5829 49.2055 66.5104 48.8732 66.4025 48.4697C66.1841 47.6529 65.8337 46.5936 65.306 45.5598C64.2173 43.4268 62.7116 41.9688 60.4844 41.9688ZM66.6826 49.7345C66.6826 49.7342 66.6827 49.7349 66.6826 49.7345V49.7345ZM66.6826 49.7345C66.6825 49.7338 66.6821 49.7317 66.682 49.731L69.125 49.375C66.6821 49.7313 66.6825 49.7338 66.6826 49.7345Z" fill="#E9EBF7"/>
<path fill-rule="evenodd" clip-rule="evenodd" d="M60.4844 54.3125C59.8026 54.3125 59.25 54.8651 59.25 55.5469C59.25 56.2286 59.8026 56.7812 60.4844 56.7812C61.1661 56.7812 61.7188 56.2286 61.7188 55.5469C61.7188 54.8651 61.1661 54.3125 60.4844 54.3125ZM54.3125 55.5469C54.3125 52.1382 57.0757 49.375 60.4844 49.375C63.893 49.375 66.6562 52.1382 66.6562 55.5469C66.6562 58.9555 63.893 61.7188 60.4844 61.7188C57.0757 61.7188 54.3125 58.9555 54.3125 55.5469Z" fill="#E9EBF7"/>
<path fill-rule="evenodd" clip-rule="evenodd" d="M60.4844 64.1875C59.3764 64.1875 58.5222 64.4582 57.8386 64.8492C56.6877 65.5075 55.7512 67.0184 55.0937 68.826C54.7871 69.6689 54.5826 70.461 54.4554 71.0436C54.3923 71.3328 54.3494 71.5648 54.3231 71.7189C54.3099 71.7957 54.301 71.8528 54.2957 71.8873L54.2907 71.9218C54.1097 73.2727 52.8683 74.2211 51.5172 74.0408C50.1657 73.8604 49.2164 72.6186 49.3967 71.2672L51.8438 71.5938C49.3967 71.2672 49.3966 71.2679 49.3967 71.2672L49.3976 71.2609L49.3988 71.2521L49.4023 71.2273L49.4137 71.1493C49.4234 71.0851 49.4374 70.9967 49.4562 70.8869C49.4937 70.6676 49.5506 70.3613 49.6315 69.9906C49.7924 69.2535 50.0529 68.2397 50.4537 67.1381C51.2109 65.0566 52.6589 62.1238 55.387 60.5633C56.8139 59.7472 58.5126 59.25 60.4844 59.25C65.4578 59.25 68.2723 62.7294 69.7038 65.5339C70.4363 66.9689 70.8958 68.3784 71.1725 69.4131C71.3121 69.9354 71.4084 70.3746 71.4709 70.6901C71.5022 70.8482 71.5251 70.9761 71.5409 71.0688C71.5488 71.1152 71.5549 71.1528 71.5593 71.1811L71.5648 71.2165L71.5667 71.2288L71.5674 71.2336C71.5675 71.2345 71.5679 71.2375 69.1993 71.5829L71.5679 71.2375C71.7647 72.5867 70.8305 73.8399 69.4813 74.0367C68.1342 74.2331 66.8827 73.302 66.683 71.9562L66.682 71.9497L66.6733 71.8969C66.6645 71.845 66.6495 71.7607 66.6273 71.6487C66.5829 71.4243 66.5104 71.092 66.4025 70.6884C66.1841 69.8716 65.8337 68.8123 65.306 67.7786C64.2173 65.6456 62.7116 64.1875 60.4844 64.1875ZM66.6826 71.9533C66.6826 71.9529 66.6827 71.9537 66.6826 71.9533V71.9533ZM66.6826 71.9533C66.6825 71.9526 66.6821 71.9505 66.682 71.9497L69.125 71.5938C66.6821 71.95 66.6825 71.9525 66.6826 71.9533Z" fill="#E9EBF7"/>
<path fill-rule="evenodd" clip-rule="evenodd" d="M32.0938 17.2812C32.0938 15.9178 33.199 14.8125 34.5625 14.8125H46.9062C48.2697 14.8125 49.375 15.9178 49.375 17.2812C49.375 18.6447 48.2697 19.75 46.9062 19.75H37.0312V37.0312H46.9062C48.2697 37.0312 49.375 38.1365 49.375 39.5C49.375 40.8635 48.2697 41.9688 46.9062 41.9688H37.0312V59.25H46.9062C48.2697 59.25 49.375 60.3553 49.375 61.7188C49.375 63.0822 48.2697 64.1875 46.9062 64.1875H34.5625C33.199 64.1875 32.0938 63.0822 32.0938 61.7188V41.9688H27.1562C25.7928 41.9688 24.6875 40.8635 24.6875 39.5C24.6875 38.1365 25.7928 37.0312 27.1562 37.0312H32.0938V17.2812Z" fill="#56B5C1"/>
</svg>
