<svg width="78" height="78" viewBox="0 0 78 78" fill="none" xmlns="http://www.w3.org/2000/svg">
<path fill-rule="evenodd" clip-rule="evenodd" d="M53.625 34.125C53.625 32.7788 54.7163 31.6875 56.0625 31.6875H68.25C69.5962 31.6875 70.6875 32.7788 70.6875 34.125V70.6875C70.6875 72.0337 69.5962 73.125 68.25 73.125H56.0625C54.7163 73.125 53.625 72.0337 53.625 70.6875V34.125ZM58.5 36.5625V68.25H65.8125V36.5625H58.5ZM29.25 43.875C29.25 42.5288 30.3413 41.4375 31.6875 41.4375H43.875C45.2212 41.4375 46.3125 42.5288 46.3125 43.875V70.6875C46.3125 72.0337 45.2212 73.125 43.875 73.125H31.6875C30.3413 73.125 29.25 72.0337 29.25 70.6875V43.875ZM34.125 46.3125V68.25H41.4375V46.3125H34.125ZM4.875 53.625C4.875 52.2788 5.96631 51.1875 7.3125 51.1875H19.5C20.8462 51.1875 21.9375 52.2788 21.9375 53.625V70.6875C21.9375 72.0337 20.8462 73.125 19.5 73.125H7.3125C5.96631 73.125 4.875 72.0337 4.875 70.6875V53.625ZM9.75 56.0625V68.25H17.0625V56.0625H9.75Z" fill="#E9EBF7"/>
<path fill-rule="evenodd" clip-rule="evenodd" d="M58.5 7.3125C58.5 5.96631 59.5913 4.875 60.9375 4.875H70.6875C72.0336 4.875 73.125 5.96631 73.125 7.3125V17.0625C73.125 18.4087 72.0336 19.5 70.6875 19.5C69.3413 19.5 68.25 18.4087 68.25 17.0625V12.7404L50.3693 28.6343C49.5608 29.353 48.3754 29.4528 47.4581 28.8795L29.1771 17.4539L8.49621 28.9433C7.31942 29.597 5.83547 29.173 5.1817 27.9963C4.52793 26.8195 4.95192 25.3355 6.1287 24.6817L28.0662 12.4942C28.8415 12.0635 29.7897 12.0879 30.5418 12.558L48.4944 23.7784L64.2763 9.75H60.9375C59.5913 9.75 58.5 8.65869 58.5 7.3125Z" fill="#56B5C1"/>
</svg>
