<svg width="80" height="80" viewBox="0 0 80 80" fill="none" xmlns="http://www.w3.org/2000/svg">
<path fill-rule="evenodd" clip-rule="evenodd" d="M15.079 50.9107C16.276 50.2225 17.8042 50.6351 18.4923 51.8321C20.7018 55.6757 23.8488 58.8971 27.6398 61.1958C31.4307 63.4945 35.7422 64.7956 40.1718 64.9777C41.5514 65.0344 42.6238 66.1987 42.567 67.5783C42.5103 68.9578 41.346 70.0302 39.9665 69.9735C34.693 69.7567 29.5604 68.2078 25.0473 65.4712C20.5343 62.7347 16.7878 58.8997 14.1575 54.324C13.4694 53.127 13.8819 51.5988 15.079 50.9107Z" fill="#E9EBF7"/>
<path fill-rule="evenodd" clip-rule="evenodd" d="M67.421 26.5893C66.224 27.2775 64.6958 26.8649 64.0077 25.6679C61.7982 21.8243 58.6512 18.6029 54.8602 16.3042C51.0693 14.0055 46.7579 12.7044 42.3282 12.5223C40.9486 12.4656 39.8762 11.3013 39.933 9.92175C39.9897 8.5422 41.154 7.46983 42.5335 7.52654C47.807 7.74333 52.9396 9.29223 57.4527 12.0288C61.9657 14.7653 65.7122 18.6003 68.3425 23.176C69.0306 24.373 68.6181 25.9012 67.421 26.5893Z" fill="#E9EBF7"/>
<path fill-rule="evenodd" clip-rule="evenodd" d="M20 10C17.2386 10 15 12.2386 15 15C15 17.7614 17.2386 20 20 20C22.7614 20 25 17.7614 25 15C25 12.2386 22.7614 10 20 10ZM10 15C10 9.47715 14.4772 5 20 5C25.5228 5 30 9.47715 30 15C30 20.5228 25.5228 25 20 25C14.4772 25 10 20.5228 10 15Z" fill="#56B5C1"/>
<path fill-rule="evenodd" clip-rule="evenodd" d="M60 37.5C57.2386 37.5 55 39.7386 55 42.5C55 45.2614 57.2386 47.5 60 47.5C62.7614 47.5 65 45.2614 65 42.5C65 39.7386 62.7614 37.5 60 37.5ZM50 42.5C50 36.9772 54.4772 32.5 60 32.5C65.5228 32.5 70 36.9772 70 42.5C70 48.0228 65.5228 52.5 60 52.5C54.4772 52.5 50 48.0228 50 42.5Z" fill="#56B5C1"/>
<path fill-rule="evenodd" clip-rule="evenodd" d="M20 32.5C14.4772 32.5 10 36.9772 10 42.5V45C10 46.3807 8.88071 47.5 7.5 47.5C6.11929 47.5 5 46.3807 5 45V42.5C5 34.2157 11.7157 27.5 20 27.5C28.2843 27.5 35 34.2157 35 42.5V45C35 46.3807 33.8807 47.5 32.5 47.5C31.1193 47.5 30 46.3807 30 45V42.5C30 36.9772 25.5228 32.5 20 32.5Z" fill="#56B5C1"/>
<path fill-rule="evenodd" clip-rule="evenodd" d="M60 60C54.4772 60 50 64.4772 50 70V72.5C50 73.8807 48.8807 75 47.5 75C46.1193 75 45 73.8807 45 72.5V70C45 61.7157 51.7157 55 60 55C68.2843 55 75 61.7157 75 70V72.5C75 73.8807 73.8807 75 72.5 75C71.1193 75 70 73.8807 70 72.5V70C70 64.4772 65.5228 60 60 60Z" fill="#56B5C1"/>
</svg>
