<svg width="75" height="75" viewBox="0 0 75 75" fill="none" xmlns="http://www.w3.org/2000/svg">
<path fill-rule="evenodd" clip-rule="evenodd" d="M23.4375 11.7188C23.4375 10.4243 24.4868 9.375 25.7812 9.375H49.2188C50.5132 9.375 51.5625 10.4243 51.5625 11.7188V21.0938C51.5625 22.3882 50.5132 23.4375 49.2188 23.4375H25.7812C24.4868 23.4375 23.4375 22.3882 23.4375 21.0938V11.7188ZM28.125 14.0625V18.75H46.875V14.0625H28.125Z" fill="#E9EBF7"/>
<path fill-rule="evenodd" clip-rule="evenodd" d="M4.6875 21.0938C4.6875 19.7993 5.73683 18.75 7.03125 18.75H67.9688C69.2632 18.75 70.3125 19.7993 70.3125 21.0938V63.2812C70.3125 64.5757 69.2632 65.625 67.9688 65.625H7.03125C5.73683 65.625 4.6875 64.5757 4.6875 63.2812V21.0938ZM9.375 23.4375V60.9375H65.625V23.4375H9.375Z" fill="#E9EBF7"/>
<path fill-rule="evenodd" clip-rule="evenodd" d="M4.6875 21.0937C4.6875 19.7993 5.73683 18.75 7.03125 18.75H67.9688C69.2632 18.75 70.3125 19.7993 70.3125 21.0937V37.5C70.3125 38.6172 69.5239 39.5791 68.4284 39.7982L44.9909 44.4857C43.7216 44.7396 42.4869 43.9164 42.233 42.6471C41.9792 41.3779 42.8023 40.1431 44.0716 39.8893L65.625 35.5786V23.4375H9.375V35.5786L30.9284 39.8893C32.1977 40.1431 33.0208 41.3779 32.767 42.6471C32.5131 43.9164 31.2784 44.7396 30.0091 44.4857L6.5716 39.7982C5.47608 39.5791 4.6875 38.6172 4.6875 37.5V21.0937Z" fill="#56B5C1"/>
<path fill-rule="evenodd" clip-rule="evenodd" d="M30.4688 37.5C30.4688 36.2056 31.5181 35.1562 32.8125 35.1562H42.1875C43.4819 35.1562 44.5312 36.2056 44.5312 37.5V46.875C44.5312 48.1694 43.4819 49.2188 42.1875 49.2188H32.8125C31.5181 49.2188 30.4688 48.1694 30.4688 46.875V37.5ZM35.1562 39.8438V44.5312H39.8438V39.8438H35.1562Z" fill="#E9EBF7"/>
</svg>
