<svg width="98" height="98" viewBox="0 0 98 98" fill="none" xmlns="http://www.w3.org/2000/svg">
<path fill-rule="evenodd" clip-rule="evenodd" d="M76.5625 15.3125C78.2539 15.3125 79.625 16.6836 79.625 18.375L79.625 27.5625C79.625 29.2539 78.2539 30.625 76.5625 30.625L15.3125 30.625C13.6211 30.625 12.25 29.2539 12.25 27.5625L12.25 18.375C12.25 16.6836 13.6211 15.3125 15.3125 15.3125L76.5625 15.3125ZM73.5 21.4375L18.375 21.4375L18.375 24.5L73.5 24.5L73.5 21.4375Z" fill="#E9EBF7"/>
<path fill-rule="evenodd" clip-rule="evenodd" d="M12.25 27.5625C12.25 25.8711 13.6211 24.5 15.3125 24.5H82.6875C84.3789 24.5 85.75 25.8711 85.75 27.5625V76.5625C85.75 78.2539 84.3789 79.625 82.6875 79.625H15.3125C13.6211 79.625 12.25 78.2539 12.25 76.5625V27.5625ZM18.375 30.625V73.5H79.625V30.625H18.375Z" fill="#E9EBF7"/>
<path d="M73.5 52.0625C73.5 55.4452 70.7577 58.1875 67.375 58.1875C63.9923 58.1875 61.25 55.4452 61.25 52.0625C61.25 48.6798 63.9923 45.9375 67.375 45.9375C70.7577 45.9375 73.5 48.6798 73.5 52.0625Z" fill="#56B5C1"/>
</svg>
