<svg width="31" height="30" viewBox="0 0 31 30" fill="none" xmlns="http://www.w3.org/2000/svg">
<g id="akar-icons:twitter-fill">
<g id="Group">
<path id="Vector" d="M29.5962 6.17147C28.551 6.63397 27.4282 6.94647 26.2478 7.08772C27.4657 6.35996 28.3769 5.21455 28.8113 3.86522C27.667 4.54396 26.4147 5.02171 25.1087 5.27772C24.2304 4.3413 23.0672 3.72063 21.7995 3.51206C20.5318 3.3035 19.2306 3.51871 18.098 4.12428C16.9654 4.72986 16.0646 5.69192 15.5356 6.8611C15.0066 8.03028 14.8789 9.34116 15.1724 10.5902C12.8538 10.474 10.5856 9.87215 8.51492 8.82385C6.44429 7.77554 4.61753 6.30417 3.15319 4.50522C2.6525 5.36772 2.3646 6.36772 2.3646 7.43272C2.36404 8.39146 2.60047 9.33552 3.0529 10.1811C3.50534 11.0267 4.15979 11.7478 4.9582 12.2802C4.03226 12.2508 3.12675 12.0009 2.31703 11.5515V11.6265C2.31694 12.9711 2.78272 14.2744 3.63534 15.3152C4.48796 16.356 5.67491 17.0701 6.99478 17.3365C6.13582 17.5686 5.23526 17.6028 4.36112 17.4365C4.73351 18.5935 5.45889 19.6053 6.43571 20.3301C7.41253 21.055 8.59189 21.4567 9.80869 21.479C7.74311 23.0982 5.19213 23.9766 2.56613 23.9727C2.10096 23.9728 1.63618 23.9457 1.17419 23.8915C3.83974 25.6029 6.94263 26.5112 10.1116 26.5077C20.839 26.5077 26.7034 17.6352 26.7034 9.94022C26.7034 9.69022 26.6971 9.43772 26.6859 9.18772C27.8266 8.36394 28.8112 7.34384 29.5937 6.17522L29.5962 6.17147Z" fill="#BBBBBB"/>
</g>
</g>
</svg>
