<svg width="29" height="28" viewBox="0 0 29 28" fill="none" xmlns="http://www.w3.org/2000/svg">
<path fill-rule="evenodd" clip-rule="evenodd" d="M9.65455 1.2435C11.025 1.1805 11.4619 1.1665 14.9527 1.1665C18.4436 1.1665 18.8805 1.18167 20.2498 1.2435C21.619 1.30534 22.5536 1.5235 23.3714 1.83967C24.2278 2.16284 25.0047 2.668 25.6473 3.32134C26.3015 3.96184 26.8062 4.7365 27.1287 5.59284C27.4464 6.4095 27.6637 7.34284 27.7268 8.70784C27.7899 10.0787 27.8039 10.515 27.8039 13.9998C27.8039 17.4858 27.7887 17.9222 27.7268 19.2907C27.6649 20.6557 27.4464 21.589 27.1287 22.4057C26.8062 23.2621 26.3007 24.0381 25.6473 24.6795C25.0047 25.3328 24.2278 25.8368 23.3714 26.1588C22.5536 26.4762 21.619 26.6932 20.2521 26.7562C18.8805 26.8192 18.4436 26.8332 14.9527 26.8332C11.4619 26.8332 11.025 26.818 9.65455 26.7562C8.28765 26.6943 7.35302 26.4762 6.53522 26.1588C5.6776 25.8368 4.90057 25.332 4.25822 24.6795C3.60443 24.0386 3.09848 23.263 2.77567 22.4068C2.45906 21.5902 2.24176 20.6568 2.17867 19.2918C2.11558 17.921 2.10156 17.4847 2.10156 13.9998C2.10156 10.5138 2.11675 10.0775 2.17867 8.71017C2.24059 7.34284 2.45906 6.4095 2.77567 5.59284C3.09896 4.7366 3.60529 3.96104 4.25939 3.32017C4.90083 2.66742 5.67708 2.16219 6.53405 1.83967C7.35185 1.5235 8.28649 1.3065 9.65338 1.2435H9.65455ZM20.1458 3.5535C18.7906 3.49167 18.384 3.47884 14.9527 3.47884C11.5215 3.47884 11.1149 3.49167 9.7597 3.5535C8.50612 3.61067 7.82618 3.8195 7.37288 3.99567C6.77355 4.229 6.34479 4.5055 5.895 4.95467C5.46862 5.3689 5.14049 5.87317 4.93466 6.4305C4.75825 6.88317 4.54913 7.56217 4.49188 8.814C4.42996 10.1673 4.41711 10.5733 4.41711 13.9998C4.41711 17.4263 4.42996 17.8323 4.49188 19.1857C4.54913 20.4375 4.75825 21.1165 4.93466 21.5692C5.14028 22.1257 5.46857 22.6308 5.895 23.045C6.30974 23.4708 6.81561 23.7987 7.37288 24.004C7.82618 24.1802 8.50612 24.389 9.7597 24.4462C11.1149 24.508 11.5203 24.5208 14.9527 24.5208C18.3852 24.5208 18.7906 24.508 20.1458 24.4462C21.3994 24.389 22.0793 24.1802 22.5326 24.004C23.1319 23.7707 23.5607 23.4942 24.0105 23.045C24.4369 22.6308 24.7652 22.1257 24.9708 21.5692C25.1472 21.1165 25.3564 20.4375 25.4136 19.1857C25.4755 17.8323 25.4884 17.4263 25.4884 13.9998C25.4884 10.5733 25.4755 10.1673 25.4136 8.814C25.3564 7.56217 25.1472 6.88317 24.9708 6.4305C24.7372 5.832 24.4603 5.40384 24.0105 4.95467C23.5957 4.52892 23.0907 4.20125 22.5326 3.99567C22.0793 3.8195 21.3994 3.61067 20.1458 3.5535ZM13.3113 17.956C14.228 18.3371 15.2488 18.3885 16.1992 18.1015C17.1497 17.8145 17.9709 17.2069 18.5226 16.3825C19.0743 15.558 19.3222 14.5679 19.2241 13.5811C19.1259 12.5944 18.6878 11.6723 17.9845 10.9723C17.5361 10.5249 16.994 10.1823 16.3971 9.96918C15.8003 9.75607 15.1635 9.67776 14.5327 9.73989C13.9019 9.80202 13.2928 10.003 12.7491 10.3285C12.2055 10.6539 11.7408 11.0957 11.3886 11.622C11.0365 12.1483 10.8055 12.746 10.7125 13.3721C10.6194 13.9982 10.6665 14.6372 10.8503 15.2429C11.0342 15.8487 11.3503 16.4062 11.7758 16.8753C12.2014 17.3445 12.7258 17.7136 13.3113 17.956ZM10.2819 9.3355C10.8953 8.72297 11.6235 8.23709 12.4249 7.90559C13.2263 7.57409 14.0853 7.40347 14.9527 7.40347C15.8202 7.40347 16.6792 7.57409 17.4806 7.90559C18.282 8.23709 19.0102 8.72297 19.6236 9.3355C20.2369 9.94803 20.7235 10.6752 21.0555 11.4755C21.3874 12.2758 21.5583 13.1336 21.5583 13.9998C21.5583 14.8661 21.3874 15.7238 21.0555 16.5242C20.7235 17.3245 20.2369 18.0516 19.6236 18.6642C18.3848 19.9012 16.7046 20.5962 14.9527 20.5962C13.2008 20.5962 11.5207 19.9012 10.2819 18.6642C9.04315 17.4271 8.34721 15.7493 8.34721 13.9998C8.34721 12.2504 9.04315 10.5726 10.2819 9.3355ZM23.0233 8.38584C23.1753 8.24265 23.297 8.07046 23.3811 7.87947C23.4653 7.68848 23.5102 7.48257 23.5133 7.27392C23.5163 7.06528 23.4774 6.85814 23.3989 6.66478C23.3203 6.47142 23.2037 6.29577 23.056 6.14822C22.9082 6.00067 22.7323 5.88422 22.5387 5.80577C22.345 5.72733 22.1376 5.68848 21.9287 5.69152C21.7197 5.69456 21.5135 5.73943 21.3223 5.82348C21.131 5.90753 20.9586 6.02905 20.8152 6.18084C20.5364 6.47604 20.3837 6.86815 20.3896 7.27392C20.3955 7.6797 20.5596 8.0672 20.8469 8.35415C21.1343 8.64111 21.5223 8.80494 21.9287 8.81085C22.335 8.81677 22.7277 8.66431 23.0233 8.38584Z" fill="#BBBBBB"/>
</svg>
