<svg width="179" height="179" viewBox="0 0 179 179" fill="none" xmlns="http://www.w3.org/2000/svg">
<path fill-rule="evenodd" clip-rule="evenodd" d="M83.3383 79.2222C83.7781 78.5644 84.0129 77.7911 84.0129 76.9999C84.0129 76.4747 83.9094 75.9546 83.7082 75.4693C83.5071 74.984 83.2122 74.5429 82.8405 74.1715C82.4688 73.8001 82.0274 73.5054 81.5417 73.3044C81.056 73.1034 80.5355 73 80.0097 73C79.2179 72.9999 78.4439 73.2345 77.7856 73.674C77.1272 74.1135 76.614 74.7382 76.311 75.4691C76.008 76.2 75.9286 77.0042 76.0831 77.7802C76.2375 78.556 76.6188 79.2688 77.1787 79.8283C77.7385 80.3876 78.4519 80.7686 79.2284 80.923C80.005 81.0773 80.81 80.9982 81.5415 80.6955C82.273 80.3926 82.8983 79.88 83.3383 79.2222ZM71.0146 88.0003C69.7023 89.9142 69 92.1799 69 94.4998V104C69 104.796 69.3164 105.559 69.8795 106.121C70.4425 106.684 71.2063 107 72.0026 107C72.799 107 73.5626 106.684 74.1258 106.121C74.6889 105.559 75.0051 104.796 75.0051 104V94.4998C75.0051 93.7776 75.1476 93.0624 75.4241 92.3951C75.7008 91.7278 76.1063 91.1215 76.6175 90.6108C77.1286 90.1001 77.7355 89.6949 78.4034 89.4185C79.0712 89.1421 79.787 88.9998 80.5099 88.9998C81.2328 88.9998 81.9486 89.1421 82.6164 89.4185C83.2843 89.6949 83.8911 90.1001 84.4023 90.6108C84.9135 91.1215 85.319 91.7278 85.5956 92.3951C85.8723 93.0624 86.0147 93.7776 86.0147 94.4998V104C86.0147 104.796 86.3309 105.559 86.8941 106.121C87.4572 106.684 88.2208 107 89.0172 107C89.8135 107 90.5773 106.684 91.1403 106.121C91.7034 105.559 92.0197 104.796 92.0197 104V94.4998C92.0197 93.0412 92.5996 91.6422 93.632 90.6107C94.6643 89.5793 96.0645 88.9998 97.5244 88.9998C98.9844 88.9998 100.385 89.5793 101.417 90.6107C102.449 91.6422 103.029 93.0412 103.029 94.4998V104C103.03 104.795 103.347 105.557 103.91 106.119C104.473 106.681 105.236 106.997 106.032 106.997C106.828 106.997 107.591 106.681 108.154 106.119C108.717 105.557 109.033 104.795 109.034 104V94.4998C109.034 92.1799 108.332 89.9142 107.02 88.0003C105.708 86.0865 103.847 84.6139 101.681 83.776C99.5162 82.9382 97.148 82.7742 94.8878 83.3057C92.6276 83.8371 90.5812 85.0391 89.0172 86.7538C87.4532 85.0391 85.4068 83.8371 83.1466 83.3057C80.8864 82.7742 78.5183 82.9382 76.353 83.776C74.1878 84.6139 72.3268 86.0865 71.0146 88.0003ZM97.0239 81C97.8157 81.0001 98.5897 80.7656 99.2481 80.326C99.9065 79.8865 100.42 79.2618 100.723 78.5309C101.026 77.8 101.105 76.9958 100.951 76.2198C100.796 75.4438 100.415 74.7311 99.8551 74.1717C99.2952 73.6122 98.5819 73.2312 97.8053 73.0769C97.0287 72.9225 96.2237 73.0017 95.4922 73.3044C94.7606 73.6071 94.1353 74.1199 93.6954 74.7777C93.2556 75.4355 93.0207 76.2088 93.0206 76.9999C93.0206 77.5252 93.1242 78.0453 93.3253 78.5306C93.5265 79.0159 93.8214 79.4569 94.1931 79.8284C94.5648 80.1998 95.0062 80.4944 95.4919 80.6955C95.9776 80.8965 96.4981 81 97.0239 81Z" fill="#0092FF" fill-opacity="0.6"/>
<path opacity="0.4" d="M94.3319 90.3971C93.5631 90.896 92.9315 91.5792 92.4946 92.3845C92.0576 93.1898 91.8293 94.0914 91.8303 95.0074C91.8343 92.1403 90.7625 89.3759 88.8264 87.2597C89.5563 86.46 90.3951 85.7668 91.3183 85.2007C92.6712 86.7062 93.6973 88.4755 94.3319 90.3971Z" fill="#171B1F"/>
<circle opacity="0.8" cx="89.5" cy="89.5" r="87.5" stroke="#0092FF" stroke-opacity="0.6" stroke-width="4" stroke-dasharray="8 8"/>
</svg>
