<svg width="18" height="21" viewBox="0 0 18 21" fill="none" xmlns="http://www.w3.org/2000/svg">
<g clip-path="url(#clip0_7_37)">
<path d="M0 19.2987V1.70147C0 1.02091 0.28125 0.551007 0.84375 0.291748L10.6875 10.5001L0.84375 20.7084C0.28125 20.4167 0 19.9468 0 19.2987ZM13.8281 13.757L3.04688 20.1737L11.5312 11.3751L13.8281 13.757ZM17.1562 9.2848C17.5625 9.60888 17.7656 10.014 17.7656 10.5001C17.7656 10.9862 17.5781 11.3913 17.2031 11.7154L14.9062 13.0765L12.375 10.5001L14.9062 7.92369L17.1562 9.2848ZM3.04688 0.82647L13.8281 7.24314L11.5312 9.62508L3.04688 0.82647Z" fill="white"/>
</g>
<defs>
<clipPath id="clip0_7_37">
<rect width="18" height="21" fill="white"/>
</clipPath>
</defs>
</svg>
