<svg width="22" height="18" viewBox="0 0 22 18" fill="none" xmlns="http://www.w3.org/2000/svg">
<path d="M6.94613 17.9259C15.1932 17.9259 19.7032 11.0582 19.7032 5.10273C19.7032 4.90766 19.6992 4.71348 19.6905 4.52017C20.566 3.88401 21.3269 3.09014 21.9271 2.18642C21.1237 2.54535 20.2592 2.78698 19.3523 2.89594C20.2779 2.33798 20.9886 1.45536 21.3239 0.403183C20.4576 0.919403 19.4983 1.2946 18.4768 1.49716C17.6586 0.621153 16.4938 0.0732422 15.204 0.0732422C12.728 0.0732422 10.7201 2.09158 10.7201 4.57947C10.7201 4.93313 10.7594 5.27714 10.8364 5.60711C7.10994 5.41863 3.80562 3.62525 1.59418 0.898312C1.20912 1.56434 0.987089 2.33801 0.987089 3.16352C0.987089 4.72712 1.77865 6.10747 2.98234 6.915C2.24674 6.89216 1.55572 6.68918 0.951742 6.35133C0.951082 6.37024 0.95108 6.38867 0.95108 6.40888C0.95108 8.59153 2.49658 10.4139 4.54815 10.8268C4.1714 10.93 3.775 10.9854 3.36587 10.9854C3.07741 10.9854 2.79637 10.9569 2.5232 10.9041C3.09401 12.6948 4.74923 13.9979 6.71163 14.0344C5.17706 15.2434 3.24392 15.9635 1.14292 15.9635C0.781462 15.9635 0.424377 15.9428 0.0734253 15.9011C2.05775 17.1796 4.41396 17.9256 6.94637 17.9256" fill="#0092FF"/>
</svg>
