<svg width="195" height="128" viewBox="0 0 195 128" fill="none" xmlns="http://www.w3.org/2000/svg">
<path d="M170.808 86.5733H36.1924C33.2309 86.5733 30.8077 84.1786 30.8077 81.2517V49.3217C30.8077 46.3947 33.2308 44 36.1924 44H170.808C173.769 44 176.192 46.3947 176.192 49.3217V81.2516C176.192 84.1786 173.769 86.5733 170.808 86.5733" fill="black"/>
<path d="M81.8738 54.9023C81.8738 55.794 81.6066 56.5041 81.0715 57.0338C80.4636 57.6636 79.6715 57.9788 78.6976 57.9788C77.765 57.9788 76.972 57.6595 76.32 57.02C75.6667 56.381 75.3407 55.5886 75.3407 54.6432C75.3407 53.6973 75.6667 52.9054 76.32 52.2659C76.972 51.6269 77.765 51.3071 78.6976 51.3071C79.1604 51.3071 79.6034 51.3966 80.024 51.5749C80.4447 51.7538 80.7821 51.9911 81.0345 52.2883L80.4665 52.85C80.0388 52.3449 79.4498 52.0925 78.6976 52.0925C78.0174 52.0925 77.4293 52.3287 76.933 52.8014C76.4365 53.2746 76.1883 53.8882 76.1883 54.6432C76.1883 55.3982 76.4365 56.0118 76.933 56.485C77.4293 56.9577 78.0174 57.1939 78.6976 57.1939C79.4191 57.1939 80.0207 56.9564 80.5023 56.4809C80.815 56.171 80.9957 55.7404 81.0441 55.1874H78.6975V54.4203H81.8287C81.859 54.5871 81.8737 54.7472 81.8737 54.9023" fill="white"/>
<path d="M81.8737 54.9018H81.766C81.7652 55.7732 81.5076 56.45 80.9952 56.958L80.9941 56.9589L80.9936 56.9598C80.4051 57.5679 79.6486 57.8706 78.6975 57.8719C77.7898 57.8706 77.03 57.5646 76.3956 56.9443C75.7626 56.3228 75.4495 55.564 75.4483 54.6427C75.4495 53.721 75.7626 52.9626 76.3956 52.3415C77.03 51.7208 77.7898 51.4143 78.6975 51.4131C79.1464 51.4131 79.5738 51.4996 79.9814 51.6721C80.3895 51.846 80.7118 52.0737 80.9519 52.3565L81.0344 52.2878L80.9583 52.2126L80.3903 52.7746L80.4664 52.8495L80.5494 52.7814C80.1017 52.2512 79.4733 51.984 78.6975 51.9856C77.9921 51.9847 77.3716 52.2338 76.8583 52.7245C76.3401 53.2167 76.0797 53.8648 76.0806 54.6427C76.0797 55.4206 76.3401 56.0687 76.8583 56.561C77.3716 57.0516 77.9921 57.3007 78.6975 57.2998C79.4429 57.3011 80.0782 57.0512 80.5784 56.5556C80.9124 56.2246 81.1017 55.7661 81.1514 55.196L81.1614 55.0805H78.8052V54.5263H81.8287V54.4198L81.7226 54.4385C81.7521 54.5999 81.766 54.7533 81.766 54.9018H81.9814C81.9814 54.74 81.9662 54.5737 81.9346 54.4008L81.9187 54.3134H78.5899V55.2933H81.0441V55.1869L80.9368 55.1778C80.8893 55.7133 80.7168 56.1166 80.4261 56.4052C79.9634 56.8608 79.3955 57.0857 78.6975 57.087C78.0426 57.0861 77.4869 56.8632 77.0078 56.408C76.5333 55.9544 76.2972 55.3753 76.296 54.6427C76.2972 53.9101 76.5333 53.331 77.0078 52.8774C77.4869 52.4222 78.0426 52.1993 78.6975 52.1984C79.4258 52.2002 79.9757 52.4379 80.3841 52.9181L80.4598 53.0071L81.1106 52.3631L81.1804 52.2942L81.1169 52.2196C80.8523 51.9079 80.4997 51.6605 80.0664 51.4768C79.6323 51.2925 79.1742 51.2002 78.6975 51.2002C77.7402 51.1994 76.9139 51.532 76.2438 52.1902C75.5712 52.8471 75.2321 53.6728 75.233 54.6427C75.2321 55.6122 75.5712 56.4384 76.2442 57.0957C76.9139 57.7534 77.7402 58.0856 78.6975 58.0848C79.6946 58.0856 80.5217 57.7583 81.1493 57.1069L81.0714 57.0333L81.1476 57.1086C81.7054 56.5577 81.9821 55.8135 81.9814 54.9018H81.8737H81.8737ZM86.8376 52.2342H83.895V54.259H86.5486V55.0264H83.895V57.0512H86.8376V57.8357H83.0654V51.4497H86.8376V52.2342Z" fill="white"/>
<path d="M86.8376 52.2352V52.1288H83.7873V54.3664H86.4409V54.9206L83.7873 54.9209V57.1586H86.7299V57.7302H83.1731V51.5571H86.7299V52.2352H86.8376V52.1288V52.2352H86.9452V51.3442H82.9578V57.9431H86.9452V56.9457H84.0027V55.1338H86.6563V54.1536H84.0027V52.3416H86.9452V52.2352H86.8376ZM90.3388 57.8367H89.508V52.2351H87.7033V51.4506H92.1436V52.2351H90.3388V57.8366" fill="white"/>
<path d="M90.3389 57.8367V57.7302H89.6158V52.1288H87.8111V51.5571H92.0359V52.1288H90.2312V57.8367H90.3389V57.7302V57.8367H90.4466V52.3416H92.2513V51.3442H87.5957V52.3416H89.4004V57.943H90.4466V57.8366H90.3389V57.8367ZM95.3563 57.8367V51.4506H96.1863V57.8366H95.3563" fill="white"/>
<path d="M95.3562 57.8367H95.4639V51.5571H96.0785V57.7302H95.3562V57.8367H95.4639H95.3562V57.9431H96.2939V51.3442H95.2485V57.9431H95.3562V57.8367V57.8367ZM99.8691 57.8367H99.0383V52.2351H97.2337V51.4506H101.674V52.2351H99.8691V57.8366" fill="white"/>
<path d="M99.8692 57.8362V57.7298H99.1461V52.1283H97.3415V51.5567H101.566V52.1283H99.7615V57.8362H99.8692V57.7298V57.8362H99.9769V52.3411H101.782V51.3438H97.1261V52.3411H98.9307V57.9426H99.9769V57.8361H99.8692V57.8362ZM105.955 56.4763C106.433 56.9548 107.018 57.1938 107.71 57.1938C108.402 57.1938 108.988 56.9548 109.465 56.4763C109.944 55.9978 110.184 55.3861 110.184 54.6432C110.184 53.9003 109.944 53.2886 109.465 52.8101C108.988 52.3316 108.402 52.0925 107.71 52.0925C107.018 52.0925 106.433 52.3316 105.955 52.8101C105.477 53.2886 105.238 53.9003 105.238 54.6432C105.238 55.3861 105.477 55.9978 105.955 56.4763ZM110.079 57.0109C109.444 57.6565 108.654 57.9788 107.71 57.9788C106.765 57.9788 105.976 57.6565 105.342 57.0109C104.706 56.366 104.39 55.5766 104.39 54.6432C104.39 53.7098 104.706 52.9202 105.342 52.2755C105.976 51.6297 106.765 51.3071 107.71 51.3071C108.649 51.3071 109.437 51.6314 110.075 52.2796C110.713 52.9278 111.031 53.7156 111.031 54.6432C111.031 55.5766 110.713 56.366 110.079 57.0109Z" fill="white"/>
<path d="M105.955 56.4758L105.878 56.5506C106.374 57.0483 106.993 57.3011 107.71 57.2998C108.427 57.3011 109.047 57.0483 109.542 56.5506C110.041 56.0525 110.292 55.4081 110.291 54.6427C110.292 53.8774 110.041 53.2329 109.542 52.7348C109.047 52.2371 108.427 51.9843 107.71 51.9856C106.993 51.9843 106.374 52.2371 105.878 52.7348C105.38 53.2329 105.128 53.8774 105.13 54.6427C105.128 55.408 105.38 56.0525 105.878 56.5506L105.955 56.4758L106.031 56.401C105.574 55.9415 105.346 55.3636 105.345 54.6427C105.346 53.9218 105.574 53.3439 106.031 52.8844C106.492 52.4251 107.043 52.1997 107.71 52.1985C108.377 52.1997 108.929 52.4251 109.389 52.8844C109.846 53.3439 110.075 53.9218 110.076 54.6427C110.075 55.3636 109.846 55.9415 109.389 56.401C108.929 56.8604 108.377 57.0857 107.71 57.0869C107.043 57.0857 106.492 56.8604 106.031 56.401L105.955 56.4758ZM110.079 57.0104L110.002 56.9365C109.385 57.5618 108.63 57.8707 107.71 57.8719C106.79 57.8706 106.035 57.5618 105.419 56.9365L105.416 56.9331L105.419 56.9365C104.802 56.309 104.498 55.5524 104.497 54.6427C104.498 53.733 104.802 52.9764 105.419 52.349C106.035 51.7236 106.79 51.4144 107.71 51.4131C108.624 51.4144 109.377 51.7249 109.998 52.3535C110.617 52.9838 110.922 53.7393 110.924 54.6427C110.922 55.5524 110.617 56.309 110.002 56.9365L110.079 57.0104L110.157 57.0844C110.81 56.4217 111.14 55.5998 111.139 54.6427C111.14 53.6911 110.808 52.8708 110.153 52.2052C109.496 51.5369 108.674 51.1991 107.71 51.2002C106.741 51.1991 105.916 51.5354 105.264 52.201V52.2005C104.61 52.8637 104.281 53.6856 104.282 54.6427C104.281 55.5998 104.61 56.4217 105.264 57.0848L105.267 57.0878L105.264 57.0844C105.916 57.75 106.741 58.0856 107.71 58.0848C108.679 58.0856 109.503 57.75 110.157 57.0844L110.079 57.0104ZM112.197 57.8358V51.4497H113.207L116.347 56.4175H116.383L116.347 55.1869V51.4497H117.178V57.8357H116.312L113.026 52.627H112.99L113.026 53.8581V57.8357H112.197" fill="white"/>
<path d="M112.197 57.8367H112.304V51.5571H113.147L116.288 56.525H116.494L116.455 55.1863V51.5571H117.071V57.7302H116.371L113.086 52.5216H112.88L112.918 53.8609V57.7302H112.197V57.8367H112.304H112.197V57.9431H113.134V53.8575L113.098 52.6252L112.99 52.628V52.7345H113.026V52.628L112.935 52.6846L116.252 57.9431H117.286V51.3442H116.24V55.1891L116.275 56.4214L116.383 56.4185V56.3121H116.347V56.4185L116.439 56.362L113.267 51.3442H112.089V57.9431H112.197V57.8367L112.197 57.8367ZM145.97 75.9303H147.979V62.6249H145.97L145.97 75.9303ZM164.069 67.4178L161.766 73.1864H161.697L159.306 67.4178H157.142L160.727 75.4805L158.683 79.9653H160.779L166.304 67.4178L164.069 67.4178ZM152.673 74.4191C152.014 74.4191 151.097 74.094 151.097 73.2891C151.097 72.2621 152.241 71.8684 153.227 71.8684C154.111 71.8684 154.526 72.0567 155.063 72.3138C154.907 73.546 153.833 74.4191 152.673 74.4191ZM152.916 67.1267C151.461 67.1267 149.954 67.7603 149.331 69.164L151.114 69.8998C151.495 69.164 152.205 68.924 152.95 68.924C153.989 68.924 155.046 69.5406 155.063 70.6361V70.773C154.699 70.5675 153.921 70.2595 152.967 70.2595C151.045 70.2595 149.087 71.3034 149.087 73.2549C149.087 75.0353 150.664 76.1823 152.43 76.1823C153.782 76.1823 154.526 75.5832 154.994 74.8814H155.063V75.9083H157.003V70.807C157.003 68.4451 155.219 67.1267 152.916 67.1267ZM140.497 69.0375H137.639V64.4767H140.497C141.999 64.4767 142.852 65.7061 142.852 66.7571C142.852 67.7882 141.999 69.0375 140.497 69.0375ZM140.445 62.6249H135.63V75.9303H137.638V70.8893H140.445C142.672 70.8893 144.861 69.2957 144.861 66.7571C144.861 64.2185 142.672 62.6249 140.445 62.6249ZM114.189 74.4216C112.8 74.4216 111.638 73.2728 111.638 71.695C111.638 70.1007 112.8 68.9345 114.189 68.9345C115.559 68.9345 116.635 70.1006 116.635 71.695C116.635 73.2728 115.559 74.4216 114.189 74.4216H114.189ZM116.496 68.1629H116.426C115.976 67.6314 115.108 67.1513 114.015 67.1513C111.725 67.1513 109.625 69.1402 109.625 71.695C109.625 74.2329 111.725 76.2048 114.015 76.2048C115.108 76.2048 115.976 75.7245 116.426 75.1761H116.496V75.8276C116.496 77.5597 115.559 78.4856 114.05 78.4856C112.818 78.4856 112.054 77.6108 111.742 76.8737L109.99 77.5938C110.493 78.794 111.829 80.2688 114.05 80.2688C116.409 80.2688 118.404 78.8967 118.404 75.5533V67.4257H116.496V68.1629ZM119.792 75.9303H121.805V62.6244H119.792V75.9303ZM124.772 71.5408C124.72 69.7917 126.142 68.9003 127.166 68.9003C127.965 68.9003 128.641 69.2945 128.866 69.8608L124.772 71.5408ZM131.018 70.032C130.636 69.02 129.473 67.1513 127.096 67.1513C124.737 67.1513 122.777 68.986 122.777 71.678C122.777 74.2158 124.72 76.2048 127.322 76.2048C129.422 76.2048 130.636 74.9358 131.139 74.1987L129.578 73.1697C129.058 73.9243 128.346 74.4216 127.322 74.4216C126.298 74.4216 125.57 73.9584 125.101 73.0499L131.225 70.5463L131.018 70.032ZM82.2242 68.5403V70.4606H86.8738C86.735 71.5408 86.3706 72.3295 85.8153 72.8783C85.1389 73.5472 84.0806 74.2844 82.2241 74.2844C79.3613 74.2844 77.1234 72.0039 77.1234 69.1747C77.1234 66.3455 79.3614 64.0648 82.2242 64.0648C83.7684 64.0648 84.8958 64.665 85.7287 65.4366L87.0993 64.0822C85.937 62.9845 84.3927 62.1444 82.2242 62.1444C78.303 62.1444 75.0066 65.2995 75.0066 69.1747C75.0066 73.0499 78.303 76.2048 82.2242 76.2048C84.3409 76.2048 85.937 75.5192 87.186 74.2329C88.4699 72.9639 88.8691 71.1808 88.8691 69.7406C88.8691 69.2945 88.8345 68.8833 88.7647 68.5403H82.2242ZM94.1553 74.4216C92.767 74.4216 91.5698 73.2898 91.5698 71.678C91.5698 70.049 92.767 68.9345 94.1553 68.9345C95.543 68.9345 96.7402 70.049 96.7402 71.678C96.7402 73.2899 95.543 74.4216 94.1553 74.4216ZM94.1553 67.1513C91.6219 67.1513 89.5572 69.0545 89.5572 71.678C89.5572 74.2844 91.6219 76.2048 94.1553 76.2048C96.6881 76.2048 98.7528 74.2844 98.7528 71.678C98.7528 69.0545 96.6881 67.1513 94.1553 67.1513ZM104.185 74.4216C102.797 74.4216 101.6 73.2898 101.6 71.678C101.6 70.049 102.797 68.9345 104.185 68.9345C105.573 68.9345 106.77 70.049 106.77 71.678C106.77 73.2899 105.573 74.4216 104.185 74.4216H104.185ZM104.185 67.1513C101.652 67.1513 99.5874 69.0545 99.5874 71.678C99.5874 74.2844 101.652 76.2048 104.185 76.2048C106.718 76.2048 108.783 74.2844 108.783 71.678C108.783 69.0545 106.718 67.1513 104.185 67.1513H104.185Z" fill="white"/>
<path d="M42.1246 52.1014C41.7632 52.4236 41.5475 52.9611 41.5475 53.6746V53.5133V77.0575V76.9025C41.5475 77.5614 41.7325 78.0702 42.0459 78.3979L42.1259 78.4736V78.4739C42.3795 78.7002 42.7047 78.8203 43.0775 78.8199C43.4417 78.8199 43.8515 78.7051 44.284 78.4628L59.9157 69.6849L65.2851 66.6694C65.9671 66.2866 66.3499 65.7927 66.4139 65.2895V65.2875C66.3499 64.7832 65.9671 64.2897 65.2852 63.9068L59.9153 60.8917L44.284 52.1138C43.8506 51.871 43.4405 51.7559 43.0754 51.7559C42.7031 51.7559 42.3782 51.8756 42.1247 52.1014H42.1246Z" fill="#00C1FF"/>
<path d="M42.1259 78.4731L42.0459 78.3975C41.7325 78.0698 41.5475 77.5609 41.5475 76.902V77.0571V53.5187V53.6741C41.5475 52.9607 41.7632 52.4232 42.1246 52.1009L55.4675 65.2875L42.1259 78.4731Z" fill="url(#paint0_linear_16_122)"/>
<path d="M59.9158 69.6846L55.4675 65.2876L59.9154 60.8913L65.2852 63.9064C65.9671 64.2893 66.3499 64.7828 66.4139 65.2872V65.2892C66.3499 65.7923 65.9671 66.2863 65.2852 66.6691L59.9158 69.6845" fill="url(#paint1_linear_16_122)"/>
<path d="M43.0776 78.8193C42.7049 78.8197 42.3797 78.6995 42.1261 78.4734V78.473L55.4677 65.2874L59.9159 69.6843L44.2841 78.4622C43.8516 78.7046 43.4418 78.8193 43.0776 78.8193Z" fill="url(#paint2_linear_16_122)"/>
<path d="M55.4676 65.2876L42.1246 52.1011C42.3783 51.8753 42.7031 51.7555 43.0753 51.7555C43.4405 51.7555 43.8506 51.8707 44.284 52.1135L59.9153 60.8913L55.4675 65.2876" fill="url(#paint3_linear_16_122)"/>
<path d="M43.078 78.9756C42.7053 78.9756 42.3796 78.8554 42.126 78.6293L42.1255 78.6297C42.1245 78.6286 42.1234 78.6277 42.1222 78.6268L42.0528 78.5598C42.0506 78.5577 42.0486 78.5553 42.046 78.5528L42.126 78.4738C42.3796 78.6999 42.7048 78.8201 43.0776 78.8196C43.4418 78.8196 43.8516 78.7049 44.284 78.4626L59.9158 69.6847L60.016 69.7837L59.9145 69.8406L44.284 78.618C43.8899 78.8388 43.515 78.954 43.1764 78.9731C43.1436 78.9747 43.1108 78.9755 43.078 78.9755" fill="url(#paint4_linear_16_122)"/>
<path d="M42.0459 78.5527C41.7325 78.2251 41.5475 77.7166 41.5475 77.0573V76.9022C41.5475 77.5611 41.7325 78.0699 42.0459 78.3977L42.1259 78.4733L42.0459 78.5527Z" fill="url(#paint5_linear_16_122)"/>
<path d="M60.0159 69.7836L59.9158 69.6846L65.2852 66.6692C65.9671 66.2864 66.3499 65.7924 66.4139 65.2892C66.4139 65.4739 66.3722 65.6585 66.2894 65.8381C66.1224 66.2002 65.7876 66.5424 65.2852 66.8247L60.0159 69.7837" fill="url(#paint6_linear_16_122)"/>
<path d="M66.414 65.2876C66.35 64.7833 65.9672 64.2898 65.2853 63.9068L59.9154 60.8918L60.0156 60.7927H60.016L65.2853 63.7517C66.0371 64.1742 66.4136 64.7308 66.414 65.2876Z" fill="url(#paint7_linear_16_122)"/>
<path d="M41.5475 53.6743V53.5117C41.5475 53.453 41.5491 53.3957 41.5521 53.34V53.3375C41.5521 53.3367 41.5521 53.3359 41.5524 53.335V53.3288C41.5849 52.7612 41.7632 52.3185 42.0459 52.0229L42.1246 52.101C41.7632 52.4233 41.5475 52.9608 41.5475 53.6743Z" fill="url(#paint8_linear_16_122)"/>
<path d="M59.9153 60.8911L44.284 52.1131C43.8507 51.8704 43.4406 51.7552 43.0754 51.7552C42.7031 51.7552 42.3783 51.875 42.1247 52.1007L42.046 52.0226C42.0706 51.9969 42.0962 51.9721 42.1226 51.9482C42.1234 51.9473 42.1247 51.9465 42.1256 51.9457C42.3772 51.7216 42.6985 51.6019 43.0675 51.5997H43.0754C43.4406 51.5997 43.8507 51.7149 44.284 51.9578L60.0159 60.7918L60.0155 60.7921L59.9153 60.8911Z" fill="url(#paint9_linear_16_122)"/>
<defs>
<linearGradient id="paint0_linear_16_122" x1="50.0744" y1="53.2699" x2="38.7299" y2="64.7857" gradientUnits="userSpaceOnUse">
<stop stop-color="#00A0FF"/>
<stop offset="0.00657" stop-color="#00A1FF"/>
<stop offset="0.2601" stop-color="#00BEFF"/>
<stop offset="0.5122" stop-color="#00D2FF"/>
<stop offset="0.7604" stop-color="#00DFFF"/>
<stop offset="1" stop-color="#00E3FF"/>
</linearGradient>
<linearGradient id="paint1_linear_16_122" x1="67.2448" y1="65.2116" x2="41.1864" y2="65.2116" gradientUnits="userSpaceOnUse">
<stop stop-color="#FFE000"/>
<stop offset="0.4087" stop-color="#FFBD00"/>
<stop offset="0.7754" stop-color="#FFA500"/>
<stop offset="1" stop-color="#FF9C00"/>
</linearGradient>
<linearGradient id="paint2_linear_16_122" x1="57.5543" y1="69.4678" x2="38.3283" y2="88.8416" gradientUnits="userSpaceOnUse">
<stop stop-color="#FF3A44"/>
<stop offset="1" stop-color="#C31162"/>
</linearGradient>
<linearGradient id="paint3_linear_16_122" x1="38.6858" y1="50.1461" x2="47.2542" y2="58.7936" gradientUnits="userSpaceOnUse">
<stop stop-color="#32A071"/>
<stop offset="0.0685" stop-color="#2DA771"/>
<stop offset="0.4762" stop-color="#15CF74"/>
<stop offset="0.8009" stop-color="#06E775"/>
<stop offset="1" stop-color="#00F076"/>
</linearGradient>
<linearGradient id="paint4_linear_16_122" x1="57.5445" y1="72.5182" x2="42.1488" y2="88.1464" gradientUnits="userSpaceOnUse">
<stop stop-color="#CC2E36"/>
<stop offset="1" stop-color="#9C0E4E"/>
</linearGradient>
<linearGradient id="paint5_linear_16_122" x1="43.325" y1="53.27" x2="33.3306" y2="63.4155" gradientUnits="userSpaceOnUse">
<stop stop-color="#008DE0"/>
<stop offset="0.00657" stop-color="#008DE0"/>
<stop offset="0.2601" stop-color="#00A7E0"/>
<stop offset="0.5122" stop-color="#00B8E0"/>
<stop offset="0.7604" stop-color="#00C4E0"/>
<stop offset="1" stop-color="#00C7E0"/>
</linearGradient>
<linearGradient id="paint6_linear_16_122" x1="67.2448" y1="65.2883" x2="41.1864" y2="65.2883" gradientUnits="userSpaceOnUse">
<stop stop-color="#E0C500"/>
<stop offset="0.4087" stop-color="#E0A600"/>
<stop offset="0.7754" stop-color="#E09100"/>
<stop offset="1" stop-color="#E08900"/>
</linearGradient>
<linearGradient id="paint7_linear_16_122" x1="67.2449" y1="65.2886" x2="41.1866" y2="65.2886" gradientUnits="userSpaceOnUse">
<stop stop-color="#FFE840"/>
<stop offset="0.4087" stop-color="#FFCE40"/>
<stop offset="0.7754" stop-color="#FFBC40"/>
<stop offset="1" stop-color="#FFB540"/>
</linearGradient>
<linearGradient id="paint8_linear_16_122" x1="43.314" y1="53.2882" x2="33.682" y2="62.6421" gradientUnits="userSpaceOnUse">
<stop stop-color="#40B8FF"/>
<stop offset="0.00657" stop-color="#40B9FF"/>
<stop offset="0.2601" stop-color="#40CEFF"/>
<stop offset="0.5122" stop-color="#40DDFF"/>
<stop offset="0.7604" stop-color="#40E7FF"/>
<stop offset="1" stop-color="#40EAFF"/>
</linearGradient>
<linearGradient id="paint9_linear_16_122" x1="38.6664" y1="52.9345" x2="45.5413" y2="59.9132" gradientUnits="userSpaceOnUse">
<stop stop-color="#65B895"/>
<stop offset="0.0685" stop-color="#62BD95"/>
<stop offset="0.4762" stop-color="#50DB97"/>
<stop offset="0.8009" stop-color="#44ED98"/>
<stop offset="1" stop-color="#40F498"/>
</linearGradient>
</defs>
</svg>
