<svg width="49" height="49" viewBox="0 0 49 49" fill="none" xmlns="http://www.w3.org/2000/svg">
<circle cx="24.5" cy="24.5" r="23.5" stroke="#696C75" stroke-width="2"/>
<path d="M20 31.98H29.91V29.71H23.73L27.42 26.44C27.9667 25.96 28.4233 25.5233 28.79 25.13C29.1633 24.73 29.4433 24.3 29.63 23.84C29.8167 23.3733 29.91 22.7967 29.91 22.11C29.91 21.17 29.6967 20.34 29.27 19.62C28.85 18.8933 28.2767 18.3267 27.55 17.92C26.8233 17.5067 25.9967 17.3 25.07 17.3C24.0767 17.3 23.2 17.4967 22.44 17.89C21.68 18.2833 21.0867 18.8367 20.66 19.55C20.2333 20.2633 20.02 21.1 20.02 22.06H22.5C22.4867 21.62 22.5867 21.21 22.8 20.83C23.0133 20.45 23.31 20.1467 23.69 19.92C24.0767 19.6867 24.52 19.57 25.02 19.57C25.7333 19.57 26.3133 19.81 26.76 20.29C27.2133 20.7633 27.44 21.36 27.44 22.08C27.44 22.4333 27.3433 22.8 27.15 23.18C26.9633 23.56 26.6333 23.9633 26.16 24.39L20 29.88V31.98Z" fill="#696C75"/>
</svg>
