<svg width="49" height="49" viewBox="0 0 49 49" fill="none" xmlns="http://www.w3.org/2000/svg">
<circle cx="24.5" cy="24.5" r="23.5" stroke="#696C75" stroke-width="2"/>
<path d="M24.52 32.27C25.42 32.27 26.24 32.0633 26.98 31.65C27.7267 31.23 28.32 30.66 28.76 29.94C29.2067 29.22 29.43 28.4067 29.43 27.5C29.43 26.7733 29.2933 26.0967 29.02 25.47C28.7467 24.8433 28.35 24.3133 27.83 23.88C27.31 23.4467 26.68 23.1533 25.94 23L29.19 19.88V17.6H20.36V19.87H26.32L22.16 23.43L23.26 25.33C23.6733 25.1033 24.09 24.99 24.51 24.99C25.2367 24.99 25.83 25.23 26.29 25.71C26.75 26.19 26.98 26.7867 26.98 27.5C26.98 28.2067 26.7433 28.7967 26.27 29.27C25.8033 29.7433 25.2167 29.9833 24.51 29.99C23.9833 29.9967 23.4967 29.8467 23.05 29.54C22.6033 29.2267 22.2967 28.7833 22.13 28.21L19.8 28.84C20.0067 29.5333 20.3433 30.14 20.81 30.66C21.2833 31.1733 21.84 31.57 22.48 31.85C23.12 32.13 23.8 32.27 24.52 32.27Z" fill="#696C75"/>
</svg>
