<svg width="64" height="64" viewBox="0 0 64 64" fill="none" xmlns="http://www.w3.org/2000/svg">
<circle cx="32.5" cy="31.5" r="24.5" fill="#56B5C1"/>
<path d="M64 32C64 49.6731 49.6731 64 32 64C14.3269 64 0 49.6731 0 32C0 14.3269 14.3269 0 32 0C49.6731 0 64 14.3269 64 32ZM3.67611 32C3.67611 47.6429 16.3571 60.3239 32 60.3239C47.6429 60.3239 60.3239 47.6429 60.3239 32C60.3239 16.3571 47.6429 3.67611 32 3.67611C16.3571 3.67611 3.67611 16.3571 3.67611 32Z" fill="#2D2B35"/>
<path fill-rule="evenodd" clip-rule="evenodd" d="M53 56.146C59.7398 50.2794 64 41.6372 64 32C64 14.3269 49.6731 0 32 0V3.67611C47.6429 3.67611 60.3239 16.3571 60.3239 32C60.3239 40.5717 56.5162 48.2541 50.5 53.4481L53 56.146Z" fill="#56B5C1"/>
<path d="M31.9 40H34.36V25.6H31.9L29.2 27.22V29.88L31.9 28.23V40Z" fill="black"/>
</svg>
